<svg xmlns="http://www.w3.org/2000/svg" xmlns:xlink="http://www.w3.org/1999/xlink" xmlns:lucid="lucid" width="1503" height="668"><g transform="translate(1181.5 101.5)" lucid:page-tab-id="0_0"><path d="M-1500-500H500v1500h-2000z" fill="#fff"/><path d="M-60 169a12 12 0 0 1 12-12h356a12 12 0 0 1 12 12v127a12 12 0 0 1-12 12H-48a12 12 0 0 1-12-12z" fill="#fff"/><path d="M-60 169a12 12 0 0 1 12-12h356a12 12 0 0 1 12 12v28H-60z" fill="#ccc"/><path d="M-60 197h380v38H-60z" fill="#fff"/><path d="M-60 234h380v38H-60z" fill="#fff"/><path d="M-60 271h380v25a12 12 0 0 1-12 12H-48a12 12 0 0 1-12-12z" fill="#fff"/><path d="M-58.5 197h377-377zM-60 169a12 12 0 0 1 12-12h356a12 12 0 0 1 12 12v127a12 12 0 0 1-12 12H-48a12 12 0 0 1-12-12zM39.95 198.5v108zM242.54 198.5v108z" stroke="#3a414a" stroke-width="3" fill="none"/><use xlink:href="#a" transform="matrix(1,0,0,1,-50,157) translate(130.75412326388889 28.08376736111111)"/><use xlink:href="#b" transform="matrix(1,0,0,1,-55,199.5) translate(10.087890625 24.08376736111111)"/><use xlink:href="#c" transform="matrix(1,0,0,1,-55,199.5) translate(51.86306423611111 24.08376736111111)"/><use xlink:href="#d" transform="matrix(1,0,0,1,44.945960555132174,199.5) translate(0 24.08376736111111)"/><use xlink:href="#e" transform="matrix(1,0,0,1,247.53831231622894,199.5) translate(0 24.08376736111111)"/><use xlink:href="#f" transform="matrix(1,0,0,1,-55,236.5) translate(9.845679012345684 20.444444444444443)"/><use xlink:href="#g" transform="matrix(1,0,0,1,-55,236.5) translate(51.820987654320994 20.444444444444443)"/><use xlink:href="#h" transform="matrix(1,0,0,1,44.945960555132174,236.5) translate(0 24.08376736111111)"/><use xlink:href="#e" transform="matrix(1,0,0,1,247.53831231622894,236.5) translate(0 24.08376736111111)"/><use xlink:href="#i" transform="matrix(1,0,0,1,44.945960555132174,273.5) translate(0 24.08376736111111)"/><use xlink:href="#e" transform="matrix(1,0,0,1,247.53831231622894,273.5) translate(0 24.08376736111111)"/><path d="M-620 352a12 12 0 0 1 12-12h356a12 12 0 0 1 12 12v201a12 12 0 0 1-12 12h-356a12 12 0 0 1-12-12z" fill="#fff"/><path d="M-620 352a12 12 0 0 1 12-12h356a12 12 0 0 1 12 12v28h-380z" fill="#ccc"/><path d="M-620 380h380v38h-380z" fill="#fff"/><path d="M-620 417h380v38h-380z" fill="#fff"/><path d="M-620 454h380v38h-380z" fill="#fff"/><path d="M-620 491h380v38h-380z" fill="#fff"/><path d="M-620 528h380v25a12 12 0 0 1-12 12h-356a12 12 0 0 1-12-12z" fill="#fff"/><path d="M-618.5 380h377-377zM-620 352a12 12 0 0 1 12-12h356a12 12 0 0 1 12 12v201a12 12 0 0 1-12 12h-356a12 12 0 0 1-12-12zM-560 381.5v182zM-344.27 381.5v182z" stroke="#3a414a" stroke-width="3" fill="none"/><use xlink:href="#j" transform="matrix(1,0,0,1,-610,340) translate(133.13042534722223 28.08376736111111)"/><use xlink:href="#k" transform="matrix(1,0,0,1,-615,382.5) translate(10.438368055555557 24.08376736111111)"/><use xlink:href="#h" transform="matrix(1,0,0,1,-555,382.5) translate(0 24.08376736111111)"/><use xlink:href="#l" transform="matrix(1,0,0,1,-339.26666666666665,382.5) translate(0 24.08376736111111)"/><use xlink:href="#m" transform="matrix(1,0,0,1,-555,419.5) translate(0 24.08376736111111)"/><use xlink:href="#n" transform="matrix(1,0,0,1,-339.26666666666665,419.5) translate(0 24.08376736111111)"/><use xlink:href="#o" transform="matrix(1,0,0,1,-555,456.5) translate(0 24.08376736111111)"/><use xlink:href="#n" transform="matrix(1,0,0,1,-339.26666666666665,456.5) translate(0 24.08376736111111)"/><use xlink:href="#p" transform="matrix(1,0,0,1,-555,493.5) translate(0 24.08376736111111)"/><use xlink:href="#q" transform="matrix(1,0,0,1,-339.26666666666665,493.5) translate(0 24.08376736111111)"/><use xlink:href="#r" transform="matrix(1,0,0,1,-555,530.5) translate(0 24.08376736111111)"/><use xlink:href="#q" transform="matrix(1,0,0,1,-339.26666666666665,530.5) translate(0 24.08376736111111)"/><path d="M-620-88a12 12 0 0 1 12-12h356a12 12 0 0 1 12 12v201a12 12 0 0 1-12 12h-356a12 12 0 0 1-12-12z" fill="#fff"/><path d="M-620-88a12 12 0 0 1 12-12h356a12 12 0 0 1 12 12v28h-380z" fill="#ccc"/><path d="M-620-60h380v38h-380z" fill="#fff"/><path d="M-620-23h380v38h-380z" fill="#fff"/><path d="M-620 14h380v38h-380z" fill="#fff"/><path d="M-620 51h380v38h-380z" fill="#fff"/><path d="M-620 88h380v25a12 12 0 0 1-12 12h-356a12 12 0 0 1-12-12z" fill="#fff"/><path d="M-618.5-60h377-377zM-620-88a12 12 0 0 1 12-12h356a12 12 0 0 1 12 12v201a12 12 0 0 1-12 12h-356a12 12 0 0 1-12-12zM-560-58.5v182zM-344.27-58.5v182z" stroke="#3a414a" stroke-width="3" fill="none"/><use xlink:href="#s" transform="matrix(1,0,0,1,-610,-100) translate(146.34114583333334 28.08376736111111)"/><use xlink:href="#k" transform="matrix(1,0,0,1,-615,-57.5) translate(10.438368055555557 24.08376736111111)"/><use xlink:href="#d" transform="matrix(1,0,0,1,-555,-57.5) translate(0 24.08376736111111)"/><use xlink:href="#e" transform="matrix(1,0,0,1,-339.26666666666665,-57.5) translate(0 24.08376736111111)"/><use xlink:href="#t" transform="matrix(1,0,0,1,-555,-20.5) translate(0 24.08376736111111)"/><use xlink:href="#n" transform="matrix(1,0,0,1,-339.26666666666665,-20.5) translate(0 24.08376736111111)"/><use xlink:href="#u" transform="matrix(1,0,0,1,-555,16.5) translate(0 24.08376736111111)"/><use xlink:href="#n" transform="matrix(1,0,0,1,-339.26666666666665,16.5) translate(0 24.08376736111111)"/><use xlink:href="#v" transform="matrix(1,0,0,1,-555,53.5) translate(0 24.08376736111111)"/><use xlink:href="#n" transform="matrix(1,0,0,1,-339.26666666666665,53.5) translate(0 24.08376736111111)"/><use xlink:href="#w" transform="matrix(1,0,0,1,-555,90.5) translate(0 24.08376736111111)"/><use xlink:href="#x" transform="matrix(1,0,0,1,-339.26666666666665,90.5) translate(0 24.08376736111111)"/><path d="M-1180 132a12 12 0 0 1 12-12h356a12 12 0 0 1 12 12v201a12 12 0 0 1-12 12h-356a12 12 0 0 1-12-12z" fill="#fff"/><path d="M-1180 132a12 12 0 0 1 12-12h356a12 12 0 0 1 12 12v28h-380z" fill="#ccc"/><path d="M-1180 160h380v38h-380z" fill="#fff"/><path d="M-1180 197h380v38h-380z" fill="#fff"/><path d="M-1180 234h380v38h-380z" fill="#fff"/><path d="M-1180 271h380v38h-380z" fill="#fff"/><path d="M-1180 308h380v25a12 12 0 0 1-12 12h-356a12 12 0 0 1-12-12z" fill="#fff"/><path d="M-1178.5 160h377-377zM-1180 132a12 12 0 0 1 12-12h356a12 12 0 0 1 12 12v201a12 12 0 0 1-12 12h-356a12 12 0 0 1-12-12zM-1120 161.5v182zM-904.27 161.5v182z" stroke="#3a414a" stroke-width="3" fill="none"/><use xlink:href="#y" transform="matrix(1,0,0,1,-1170,120) translate(151.59830729166666 28.08376736111111)"/><use xlink:href="#k" transform="matrix(1,0,0,1,-1175,162.5) translate(10.438368055555557 24.08376736111111)"/><use xlink:href="#z" transform="matrix(1,0,0,1,-1115,162.5) translate(0 24.08376736111111)"/><use xlink:href="#e" transform="matrix(1,0,0,1,-899.2666666666667,162.5) translate(0 24.08376736111111)"/><use xlink:href="#x" transform="matrix(1,0,0,1,-1115,199.5) translate(0 24.08376736111111)"/><use xlink:href="#x" transform="matrix(1,0,0,1,-899.2666666666667,199.5) translate(0 24.08376736111111)"/><use xlink:href="#A" transform="matrix(1,0,0,1,-1175,236.5) translate(10.833333333333336 20.444444444444443)"/><use xlink:href="#d" transform="matrix(1,0,0,1,-1115,236.5) translate(0 24.08376736111111)"/><use xlink:href="#e" transform="matrix(1,0,0,1,-899.2666666666667,236.5) translate(0 24.08376736111111)"/><use xlink:href="#B" transform="matrix(1,0,0,1,-1175,273.5) translate(10.975477430555557 24.08376736111111)"/><use xlink:href="#h" transform="matrix(1,0,0,1,-1115,273.5) translate(0 24.08376736111111)"/><use xlink:href="#e" transform="matrix(1,0,0,1,-899.2666666666667,273.5) translate(0 24.08376736111111)"/><use xlink:href="#C" transform="matrix(1,0,0,1,-1115,310.5) translate(0 24.08376736111111)"/><use xlink:href="#e" transform="matrix(1,0,0,1,-899.2666666666667,310.5) translate(0 24.08376736111111)"/><path d="M-641.5-41.93H-704a6 6 0 0 0-6 6V156.5a6 6 0 0 1-6 6h-42.5M-621.5-41.93h-20m10-10v20m-10-20v20" stroke="#3a414a" stroke-width="2" fill="none"/><path d="M-798.05 162.5h20m-20 10l20-10m-20-10l20 10m0 .1v-.1a10 10 0 0 1 10-10 10 10 0 0 1 10 10 10 10 0 0 1-10 10 10 10 0 0 1-10-10v-.1" stroke="#3a414a" stroke-width="2" fill="#fff"/><path d="M-641.5 398.07H-704a6 6 0 0 1-6-6v-96.12a6 6 0 0 0-6-6h-42.5M-621.5 398.07h-20m10-10v20m-10-20v20" stroke="#3a414a" stroke-width="2" fill="none"/><path d="M-798.05 289.95h20m-20 10l20-10m-20-10l20 10m0 .1v-.1a10 10 0 0 1 10-10 10 10 0 0 1 10 10 10 10 0 0 1-10 10 10 10 0 0 1-10-10v-.1" stroke="#3a414a" stroke-width="2" fill="#fff"/><path d="M-218.5-41.93h62.5a6 6 0 0 1 6 6v245.3a6 6 0 0 0 6 6h42.5M-238.5-41.93h20m-10 10v-20m10 20v-20" stroke="#3a414a" stroke-width="2" fill="none"/><path d="M-61.95 215.37h-20m20-10l-20 10m20 10l-20-10m-20 .1v-.1a10 10 0 0 1 10-10 10 10 0 0 1 10 10 10 10 0 0 1-10 10 10 10 0 0 1-10-10v-.1" stroke="#3a414a" stroke-width="2" fill="#fff"/><path d="M-218.5 398.07h62.5a6 6 0 0 0 6-6v-133.4a6 6 0 0 1 6-6h42.5M-238.5 398.07h20m-10 10v-20m10 20v-20" stroke="#3a414a" stroke-width="2" fill="none"/><path d="M-61.95 252.66h-20m20-10l-20 10m20 10l-20-10m-20 .1v-.1a10 10 0 0 1 10-10 10 10 0 0 1 10 10 10 10 0 0 1-10 10 10 10 0 0 1-10-10v-.1" stroke="#3a414a" stroke-width="2" fill="#fff"/><defs><path fill="#3a414a" d="M370-1490V0H180v-1490h190" id="D"/><path fill="#3a414a" d="M338-670V0H158v-1118h173l1 207c72-158 192-221 342-221 226 0 378 139 378 422V0H872v-695c0-172-96-275-252-275-161 0-282 109-282 300" id="E"/><path fill="#3a414a" d="M481 0L54-1118h197c107 314 236 620 325 951 87-331 217-637 324-951h197L670 0H481" id="F"/><path fill="#3a414a" d="M628 24c-324 0-524-230-524-574 0-343 198-582 503-582 237 0 487 146 487 559v75H286c9 234 145 362 343 362 132 0 231-58 273-172l174 48C1024-91 857 24 628 24zM287-650h624c-17-190-120-322-304-322-192 0-309 151-320 322" id="G"/><path fill="#3a414a" d="M598-1118v154H368v674c0 100 37 144 132 144 23 0 62-6 92-12L629-6c-37 13-88 20-134 20-193 0-307-107-307-290v-688H20v-154h168v-266h180v266h230" id="H"/><path fill="#3a414a" d="M613 24c-304 0-509-231-509-576 0-350 205-580 509-580 305 0 511 230 511 580 0 345-206 576-511 576zm0-161c226 0 329-195 329-415 0-222-103-419-329-419-223 0-326 196-326 419 0 220 103 415 326 415" id="I"/><path fill="#3a414a" d="M158 0v-1118h174v172h12c41-113 157-188 290-188 26 0 70 2 91 3v181c-11-2-60-10-108-10-161 0-279 109-279 260V0H158" id="J"/><path fill="#3a414a" d="M140 405l46-156c120 36 205 19 263-150l32-93L54-1118h197c107 313 237 620 324 950 87-331 219-637 326-950h196L606 167c-68 178-176 259-334 259-64 0-113-12-132-21" id="K"/><g id="a"><use transform="matrix(0.010850694444444444,0,0,0.010850694444444444,0,0)" xlink:href="#D"/><use transform="matrix(0.010850694444444444,0,0,0.010850694444444444,5.967881944444445,0)" xlink:href="#E"/><use transform="matrix(0.010850694444444444,0,0,0.010850694444444444,18.77170138888889,0)" xlink:href="#F"/><use transform="matrix(0.010850694444444444,0,0,0.010850694444444444,30.826822916666664,0)" xlink:href="#G"/><use transform="matrix(0.010850694444444444,0,0,0.010850694444444444,43.78255208333333,0)" xlink:href="#E"/><use transform="matrix(0.010850694444444444,0,0,0.010850694444444444,56.91189236111111,0)" xlink:href="#H"/><use transform="matrix(0.010850694444444444,0,0,0.010850694444444444,63.96484375,0)" xlink:href="#I"/><use transform="matrix(0.010850694444444444,0,0,0.010850694444444444,77.28949652777777,0)" xlink:href="#J"/><use transform="matrix(0.010850694444444444,0,0,0.010850694444444444,86.00260416666667,0)" xlink:href="#K"/></g><path fill="#3a414a" d="M180 0v-1490h510c348 0 508 209 508 474 0 266-160 477-507 477H370V0H180zm190-706h312c236 0 327-133 327-310 0-176-91-307-329-307H370v617" id="L"/><path fill="#3a414a" d="M180 0v-1490h190c0 262 1 526-3 784 217-279 467-523 702-784h249L716-845 1319 0h-225L585-716 370-489V0H180" id="M"/><path fill="#3a414a" d="M128 359l88-567h206L266 359H128" id="N"/><g id="b"><use transform="matrix(0.010850694444444444,0,0,0.010850694444444444,0,0)" xlink:href="#L"/><use transform="matrix(0.010850694444444444,0,0,0.010850694444444444,14.192708333333332,0)" xlink:href="#M"/><use transform="matrix(0.010850694444444444,0,0,0.010850694444444444,29.12326388888889,0)" xlink:href="#N"/></g><path fill="#3a414a" d="M180 0v-1490h901v168H370v510h643v168H370V0H180" id="O"/><g id="c"><use transform="matrix(0.010850694444444444,0,0,0.010850694444444444,0,0)" xlink:href="#O"/><use transform="matrix(0.010850694444444444,0,0,0.010850694444444444,13.118489583333332,0)" xlink:href="#M"/></g><path fill="#3a414a" d="M657 26c-323 0-524-166-541-416h195c15 169 171 246 346 246 202 0 356-106 356-265 5-203-294-238-475-293-239-73-380-191-380-389 0-252 224-419 512-419 294 0 499 171 508 396H992c-17-145-151-228-328-228-193 0-321 102-321 242 0 156 175 211 284 241l149 41c160 44 422 134 422 412 0 244-197 432-541 432" id="P"/><path fill="#3a414a" d="M934 0v166H0V0h934" id="Q"/><path fill="#3a414a" d="M645 0H180v-1490h484c435 0 692 280 692 742 0 466-257 748-711 748zM370-168h263c363 0 539-218 539-580 0-358-176-574-521-574H370v1154" id="R"/><g id="d"><use transform="matrix(0.010850694444444444,0,0,0.010850694444444444,0,0)" xlink:href="#P"/><use transform="matrix(0.010850694444444444,0,0,0.010850694444444444,14.2578125,0)" xlink:href="#H"/><use transform="matrix(0.010850694444444444,0,0,0.010850694444444444,21.31076388888889,0)" xlink:href="#I"/><use transform="matrix(0.010850694444444444,0,0,0.010850694444444444,34.635416666666664,0)" xlink:href="#J"/><use transform="matrix(0.010850694444444444,0,0,0.010850694444444444,42.632378472222214,0)" xlink:href="#G"/><use transform="matrix(0.010850694444444444,0,0,0.010850694444444444,55.58810763888888,0)" xlink:href="#Q"/><use transform="matrix(0.010850694444444444,0,0,0.010850694444444444,66.47135416666666,0)" xlink:href="#D"/><use transform="matrix(0.010850694444444444,0,0,0.010850694444444444,72.4392361111111,0)" xlink:href="#R"/></g><path fill="#3a414a" d="M158 0v-1118h180V0H158zm91-1301c-68 0-125-53-125-119s57-119 125-119c69 0 126 53 126 119s-57 119-126 119" id="S"/><g id="e"><use transform="matrix(0.010850694444444444,0,0,0.010850694444444444,0,0)" xlink:href="#S"/><use transform="matrix(0.010850694444444444,0,0,0.010850694444444444,5.381944444444445,0)" xlink:href="#E"/><use transform="matrix(0.010850694444444444,0,0,0.010850694444444444,18.51128472222222,0)" xlink:href="#H"/></g><path fill="#3a414a" d="M30-248c87 1 191-15 191 75 0 78-77 80-158 76V0H30v-248zm33 125c57 0 124 11 124-50 0-59-68-47-124-48v98" id="T"/><path fill="#3a414a" d="M194 0L95-120 63-95V0H30v-248h33v124l119-124h40L117-140 236 0h-42" id="U"/><path fill="#3a414a" d="M68-38c1 34 0 65-14 84H32c9-13 17-26 17-46H33v-38h35" id="V"/><g id="f"><use transform="matrix(0.06172839506172839,0,0,0.06172839506172839,0,0)" xlink:href="#T"/><use transform="matrix(0.06172839506172839,0,0,0.06172839506172839,14.814814814814813,0)" xlink:href="#U"/><use transform="matrix(0.06172839506172839,0,0,0.06172839506172839,29.629629629629626,0)" xlink:href="#V"/></g><path fill="#3a414a" d="M63-220v92h138v28H63V0H30v-248h175v28H63" id="W"/><g id="g"><use transform="matrix(0.06172839506172839,0,0,0.06172839506172839,0,0)" xlink:href="#W"/><use transform="matrix(0.06172839506172839,0,0,0.06172839506172839,13.518518518518517,0)" xlink:href="#U"/></g><path fill="#3a414a" d="M577 24c-279 0-473-224-473-580 0-354 195-576 474-576 218 0 287 134 324 193h14v-551h180V0H922v-173h-20C865-111 790 24 577 24zm27-161c203 0 314-172 314-421 0-247-108-413-314-413-212 0-317 181-317 413 0 235 108 421 317 421" id="X"/><path fill="#3a414a" d="M537 14c-226 0-379-139-379-422v-710h180v695c0 172 97 275 253 275 160 0 281-109 281-300v-670h181V0H879v-209C806-46 684 14 537 14" id="Y"/><path fill="#3a414a" d="M613 24c-304 0-509-231-509-576 0-350 205-580 509-580 216 0 392 114 453 309l-173 49c-33-115-133-197-280-197-223 0-326 196-326 419 0 220 103 415 326 415 150 0 252-85 285-206l172 49C1010-95 832 24 613 24" id="Z"/><g id="h"><use transform="matrix(0.010850694444444444,0,0,0.010850694444444444,0,0)" xlink:href="#L"/><use transform="matrix(0.010850694444444444,0,0,0.010850694444444444,14.192708333333332,0)" xlink:href="#J"/><use transform="matrix(0.010850694444444444,0,0,0.010850694444444444,22.189670138888886,0)" xlink:href="#I"/><use transform="matrix(0.010850694444444444,0,0,0.010850694444444444,35.514322916666664,0)" xlink:href="#X"/><use transform="matrix(0.010850694444444444,0,0,0.010850694444444444,49.12109375,0)" xlink:href="#Y"/><use transform="matrix(0.010850694444444444,0,0,0.010850694444444444,62.26128472222222,0)" xlink:href="#Z"/><use transform="matrix(0.010850694444444444,0,0,0.010850694444444444,74.95659722222223,0)" xlink:href="#H"/><use transform="matrix(0.010850694444444444,0,0,0.010850694444444444,82.2265625,0)" xlink:href="#Q"/><use transform="matrix(0.010850694444444444,0,0,0.010850694444444444,93.1098090277778,0)" xlink:href="#D"/><use transform="matrix(0.010850694444444444,0,0,0.010850694444444444,99.07769097222221,0)" xlink:href="#R"/></g><path fill="#3a414a" d="M158 0v-1490h180v865h22l478-493h223L593-638 1096 0H865L456-523 338-412V0H158" id="aa"/><path fill="#3a414a" d="M784 20c-382 0-662-292-662-764 0-473 280-766 662-766s660 293 660 766c0 472-278 764-660 764zm0-176c266 0 475-207 475-588 0-383-209-590-475-590-268 0-477 208-477 590 0 380 209 588 477 588" id="ab"/><path fill="#3a414a" d="M180 0v-1490h190v644h782v-644h190V0h-190v-678H370V0H180" id="ac"/><path fill="#3a414a" d="M471 26C259 26 90-98 90-318c0-256 228-303 435-329 202-27 287-16 287-108 0-139-79-219-234-219-161 0-248 86-283 164l-173-57c86-203 278-265 451-265 150 0 419 46 419 395V0H815v-152h-12C765-73 660 26 471 26zm31-159c199 0 310-134 310-271v-155c-30 35-226 55-295 64-131 17-246 59-246 186 0 116 97 176 231 176" id="ad"/><g id="i"><use transform="matrix(0.010850694444444444,0,0,0.010850694444444444,0,0)" xlink:href="#P"/><use transform="matrix(0.010850694444444444,0,0,0.010850694444444444,14.2578125,0)" xlink:href="#H"/><use transform="matrix(0.010850694444444444,0,0,0.010850694444444444,21.31076388888889,0)" xlink:href="#I"/><use transform="matrix(0.010850694444444444,0,0,0.010850694444444444,34.635416666666664,0)" xlink:href="#Z"/><use transform="matrix(0.010850694444444444,0,0,0.010850694444444444,47.330729166666664,0)" xlink:href="#aa"/><use transform="matrix(0.010850694444444444,0,0,0.010850694444444444,59.52690972222222,0)" xlink:href="#Q"/><use transform="matrix(0.010850694444444444,0,0,0.010850694444444444,68.78255208333333,0)" xlink:href="#ab"/><use transform="matrix(0.010850694444444444,0,0,0.010850694444444444,85.77473958333333,0)" xlink:href="#E"/><use transform="matrix(0.010850694444444444,0,0,0.010850694444444444,98.90407986111111,0)" xlink:href="#Q"/><use transform="matrix(0.010850694444444444,0,0,0.010850694444444444,109.78732638888889,0)" xlink:href="#ac"/><use transform="matrix(0.010850694444444444,0,0,0.010850694444444444,126.30208333333333,0)" xlink:href="#ad"/><use transform="matrix(0.010850694444444444,0,0,0.010850694444444444,138.78038194444443,0)" xlink:href="#E"/><use transform="matrix(0.010850694444444444,0,0,0.010850694444444444,151.9097222222222,0)" xlink:href="#X"/></g><path fill="#3a414a" d="M538 24C308 24 148-78 108-271l171-41c32 123 123 178 257 178 156 0 256-77 256-169 0-77-54-128-164-154l-186-44c-203-48-300-148-300-305 0-192 176-326 414-326 230 0 351 112 402 269l-163 42c-31-80-94-158-238-158-133 0-233 69-233 162 0 83 57 129 188 160l169 40c203 48 298 149 298 302 0 196-179 339-441 339" id="ae"/><g id="j"><use transform="matrix(0.010850694444444444,0,0,0.010850694444444444,0,0)" xlink:href="#L"/><use transform="matrix(0.010850694444444444,0,0,0.010850694444444444,14.192708333333332,0)" xlink:href="#J"/><use transform="matrix(0.010850694444444444,0,0,0.010850694444444444,22.189670138888886,0)" xlink:href="#I"/><use transform="matrix(0.010850694444444444,0,0,0.010850694444444444,35.514322916666664,0)" xlink:href="#X"/><use transform="matrix(0.010850694444444444,0,0,0.010850694444444444,49.12109375,0)" xlink:href="#Y"/><use transform="matrix(0.010850694444444444,0,0,0.010850694444444444,62.26128472222222,0)" xlink:href="#Z"/><use transform="matrix(0.010850694444444444,0,0,0.010850694444444444,74.95659722222223,0)" xlink:href="#H"/><use transform="matrix(0.010850694444444444,0,0,0.010850694444444444,82.00954861111111,0)" xlink:href="#ae"/></g><g id="k"><use transform="matrix(0.010850694444444444,0,0,0.010850694444444444,0,0)" xlink:href="#L"/><use transform="matrix(0.010850694444444444,0,0,0.010850694444444444,14.192708333333332,0)" xlink:href="#M"/></g><path fill="#3a414a" d="M158 0v-1118h175l1 205c55-151 181-225 313-225 147 0 245 90 285 228 53-141 190-228 352-228 194 0 352 125 352 384V0h-181v-749c0-161-105-225-225-225-151 0-243 103-243 244V0H807v-767c0-124-93-207-219-207-131 0-250 92-250 270V0H158" id="af"/><path fill="#3a414a" d="M677 24c-213 0-288-135-325-197h-20V0H158v-1490h180v551h14c37-59 106-193 324-193 279 0 474 222 474 576 0 356-194 580-473 580zm-27-161c209 0 317-186 317-421 0-232-105-413-317-413-206 0-314 166-314 413 0 249 111 421 314 421" id="ag"/><g id="l"><use transform="matrix(0.010850694444444444,0,0,0.010850694444444444,0,0)" xlink:href="#E"/><use transform="matrix(0.010850694444444444,0,0,0.010850694444444444,13.129340277777777,0)" xlink:href="#Y"/><use transform="matrix(0.010850694444444444,0,0,0.010850694444444444,26.26953125,0)" xlink:href="#af"/><use transform="matrix(0.010850694444444444,0,0,0.010850694444444444,45.73567708333333,0)" xlink:href="#ag"/><use transform="matrix(0.010850694444444444,0,0,0.010850694444444444,59.34244791666666,0)" xlink:href="#G"/><use transform="matrix(0.010850694444444444,0,0,0.010850694444444444,72.29817708333333,0)" xlink:href="#J"/></g><path fill="#3a414a" d="M180 0v-1490h224l606 953c40 63 108 177 176 312-27-437-7-821-13-1265h190V0h-226C860-448 622-778 356-1262c27 476 11 792 15 1262H180" id="ah"/><g id="m"><use transform="matrix(0.010850694444444444,0,0,0.010850694444444444,0,0)" xlink:href="#L"/><use transform="matrix(0.010850694444444444,0,0,0.010850694444444444,14.192708333333332,0)" xlink:href="#J"/><use transform="matrix(0.010850694444444444,0,0,0.010850694444444444,22.189670138888886,0)" xlink:href="#I"/><use transform="matrix(0.010850694444444444,0,0,0.010850694444444444,35.514322916666664,0)" xlink:href="#X"/><use transform="matrix(0.010850694444444444,0,0,0.010850694444444444,49.12109375,0)" xlink:href="#Y"/><use transform="matrix(0.010850694444444444,0,0,0.010850694444444444,62.26128472222222,0)" xlink:href="#Z"/><use transform="matrix(0.010850694444444444,0,0,0.010850694444444444,74.95659722222223,0)" xlink:href="#H"/><use transform="matrix(0.010850694444444444,0,0,0.010850694444444444,82.2265625,0)" xlink:href="#Q"/><use transform="matrix(0.010850694444444444,0,0,0.010850694444444444,93.1098090277778,0)" xlink:href="#ah"/><use transform="matrix(0.010850694444444444,0,0,0.010850694444444444,109.85243055555557,0)" xlink:href="#ad"/><use transform="matrix(0.010850694444444444,0,0,0.010850694444444444,122.33072916666669,0)" xlink:href="#af"/><use transform="matrix(0.010850694444444444,0,0,0.010850694444444444,141.79687500000003,0)" xlink:href="#G"/></g><path fill="#3a414a" d="M611 442c-248 0-391-105-460-228l146-94c47 65 117 165 314 165 178 0 307-82 307-266v-224h-17C863-141 792-18 576-18c-268 0-472-195-472-546 0-346 197-568 476-568 216 0 288 133 326 193h17v-179h175V29c0 289-215 413-487 413zm-5-620c203 0 314-146 314-390 0-237-108-403-314-403-213 0-319 180-319 403 0 230 109 390 319 390" id="ai"/><g id="n"><use transform="matrix(0.010850694444444444,0,0,0.010850694444444444,0,0)" xlink:href="#ae"/><use transform="matrix(0.010850694444444444,0,0,0.010850694444444444,11.729600694444445,0)" xlink:href="#H"/><use transform="matrix(0.010850694444444444,0,0,0.010850694444444444,18.99956597222222,0)" xlink:href="#J"/><use transform="matrix(0.010850694444444444,0,0,0.010850694444444444,27.712673611111104,0)" xlink:href="#S"/><use transform="matrix(0.010850694444444444,0,0,0.010850694444444444,33.09461805555555,0)" xlink:href="#E"/><use transform="matrix(0.010850694444444444,0,0,0.010850694444444444,46.22395833333333,0)" xlink:href="#ai"/></g><path fill="#3a414a" d="M783 20c-382 0-661-292-661-764 0-473 279-766 661-766 302 0 548 182 601 489h-190c-42-204-217-313-411-313-268 0-476 208-476 590 0 381 209 588 476 588 195 0 369-110 411-313h190c-52 303-296 489-601 489" id="aj"/><g id="o"><use transform="matrix(0.010850694444444444,0,0,0.010850694444444444,0,0)" xlink:href="#L"/><use transform="matrix(0.010850694444444444,0,0,0.010850694444444444,14.192708333333332,0)" xlink:href="#J"/><use transform="matrix(0.010850694444444444,0,0,0.010850694444444444,22.189670138888886,0)" xlink:href="#I"/><use transform="matrix(0.010850694444444444,0,0,0.010850694444444444,35.514322916666664,0)" xlink:href="#X"/><use transform="matrix(0.010850694444444444,0,0,0.010850694444444444,49.12109375,0)" xlink:href="#Y"/><use transform="matrix(0.010850694444444444,0,0,0.010850694444444444,62.26128472222222,0)" xlink:href="#Z"/><use transform="matrix(0.010850694444444444,0,0,0.010850694444444444,74.95659722222223,0)" xlink:href="#H"/><use transform="matrix(0.010850694444444444,0,0,0.010850694444444444,82.2265625,0)" xlink:href="#Q"/><use transform="matrix(0.010850694444444444,0,0,0.010850694444444444,91.48220486111111,0)" xlink:href="#aj"/><use transform="matrix(0.010850694444444444,0,0,0.010850694444444444,107.71484375,0)" xlink:href="#ad"/><use transform="matrix(0.010850694444444444,0,0,0.010850694444444444,120.1931423611111,0)" xlink:href="#H"/><use transform="matrix(0.010850694444444444,0,0,0.010850694444444444,127.24609375,0)" xlink:href="#G"/><use transform="matrix(0.010850694444444444,0,0,0.010850694444444444,140.20182291666666,0)" xlink:href="#ai"/><use transform="matrix(0.010850694444444444,0,0,0.010850694444444444,153.83029513888889,0)" xlink:href="#I"/><use transform="matrix(0.010850694444444444,0,0,0.010850694444444444,167.15494791666666,0)" xlink:href="#J"/><use transform="matrix(0.010850694444444444,0,0,0.010850694444444444,175.86805555555554,0)" xlink:href="#K"/></g><g id="p"><use transform="matrix(0.010850694444444444,0,0,0.010850694444444444,0,0)" xlink:href="#L"/><use transform="matrix(0.010850694444444444,0,0,0.010850694444444444,14.192708333333332,0)" xlink:href="#J"/><use transform="matrix(0.010850694444444444,0,0,0.010850694444444444,22.189670138888886,0)" xlink:href="#I"/><use transform="matrix(0.010850694444444444,0,0,0.010850694444444444,35.514322916666664,0)" xlink:href="#X"/><use transform="matrix(0.010850694444444444,0,0,0.010850694444444444,49.12109375,0)" xlink:href="#Y"/><use transform="matrix(0.010850694444444444,0,0,0.010850694444444444,62.26128472222222,0)" xlink:href="#Z"/><use transform="matrix(0.010850694444444444,0,0,0.010850694444444444,74.95659722222223,0)" xlink:href="#H"/><use transform="matrix(0.010850694444444444,0,0,0.010850694444444444,82.2265625,0)" xlink:href="#Q"/><use transform="matrix(0.010850694444444444,0,0,0.010850694444444444,91.48220486111111,0)" xlink:href="#aj"/><use transform="matrix(0.010850694444444444,0,0,0.010850694444444444,107.71484375,0)" xlink:href="#I"/><use transform="matrix(0.010850694444444444,0,0,0.010850694444444444,121.03949652777777,0)" xlink:href="#ae"/><use transform="matrix(0.010850694444444444,0,0,0.010850694444444444,132.76909722222223,0)" xlink:href="#H"/></g><path fill="#3a414a" d="M678-1118v154H420V0H240v-964H20v-154h220v-149c0-194 155-293 318-293 85 0 141 18 168 30l-50 154c-19-6-47-17-97-17-111 0-159 58-159 166v109h258" id="ak"/><path fill="#3a414a" d="M338-1490V0H158v-1490h180" id="al"/><g id="q"><use transform="matrix(0.010850694444444444,0,0,0.010850694444444444,0,0)" xlink:href="#ak"/><use transform="matrix(0.010850694444444444,0,0,0.010850694444444444,8.22482638888889,0)" xlink:href="#al"/><use transform="matrix(0.010850694444444444,0,0,0.010850694444444444,13.606770833333332,0)" xlink:href="#I"/><use transform="matrix(0.010850694444444444,0,0,0.010850694444444444,27.1484375,0)" xlink:href="#ad"/><use transform="matrix(0.010850694444444444,0,0,0.010850694444444444,39.626736111111114,0)" xlink:href="#H"/></g><g id="r"><use transform="matrix(0.010850694444444444,0,0,0.010850694444444444,0,0)" xlink:href="#L"/><use transform="matrix(0.010850694444444444,0,0,0.010850694444444444,14.192708333333332,0)" xlink:href="#J"/><use transform="matrix(0.010850694444444444,0,0,0.010850694444444444,22.189670138888886,0)" xlink:href="#I"/><use transform="matrix(0.010850694444444444,0,0,0.010850694444444444,35.514322916666664,0)" xlink:href="#X"/><use transform="matrix(0.010850694444444444,0,0,0.010850694444444444,49.12109375,0)" xlink:href="#Y"/><use transform="matrix(0.010850694444444444,0,0,0.010850694444444444,62.26128472222222,0)" xlink:href="#Z"/><use transform="matrix(0.010850694444444444,0,0,0.010850694444444444,74.95659722222223,0)" xlink:href="#H"/><use transform="matrix(0.010850694444444444,0,0,0.010850694444444444,82.2265625,0)" xlink:href="#Q"/><use transform="matrix(0.010850694444444444,0,0,0.010850694444444444,93.1098090277778,0)" xlink:href="#L"/><use transform="matrix(0.010850694444444444,0,0,0.010850694444444444,107.30251736111111,0)" xlink:href="#J"/><use transform="matrix(0.010850694444444444,0,0,0.010850694444444444,116.01562500000001,0)" xlink:href="#S"/><use transform="matrix(0.010850694444444444,0,0,0.010850694444444444,121.39756944444446,0)" xlink:href="#Z"/><use transform="matrix(0.010850694444444444,0,0,0.010850694444444444,134.09288194444446,0)" xlink:href="#G"/></g><g id="s"><use transform="matrix(0.010850694444444444,0,0,0.010850694444444444,0,0)" xlink:href="#P"/><use transform="matrix(0.010850694444444444,0,0,0.010850694444444444,14.2578125,0)" xlink:href="#H"/><use transform="matrix(0.010850694444444444,0,0,0.010850694444444444,21.31076388888889,0)" xlink:href="#I"/><use transform="matrix(0.010850694444444444,0,0,0.010850694444444444,34.635416666666664,0)" xlink:href="#J"/><use transform="matrix(0.010850694444444444,0,0,0.010850694444444444,42.632378472222214,0)" xlink:href="#G"/><use transform="matrix(0.010850694444444444,0,0,0.010850694444444444,55.58810763888888,0)" xlink:href="#ae"/></g><g id="t"><use transform="matrix(0.010850694444444444,0,0,0.010850694444444444,0,0)" xlink:href="#P"/><use transform="matrix(0.010850694444444444,0,0,0.010850694444444444,14.2578125,0)" xlink:href="#H"/><use transform="matrix(0.010850694444444444,0,0,0.010850694444444444,21.31076388888889,0)" xlink:href="#I"/><use transform="matrix(0.010850694444444444,0,0,0.010850694444444444,34.635416666666664,0)" xlink:href="#J"/><use transform="matrix(0.010850694444444444,0,0,0.010850694444444444,42.632378472222214,0)" xlink:href="#G"/><use transform="matrix(0.010850694444444444,0,0,0.010850694444444444,55.58810763888888,0)" xlink:href="#Q"/><use transform="matrix(0.010850694444444444,0,0,0.010850694444444444,66.47135416666666,0)" xlink:href="#ah"/><use transform="matrix(0.010850694444444444,0,0,0.010850694444444444,83.21397569444443,0)" xlink:href="#ad"/><use transform="matrix(0.010850694444444444,0,0,0.010850694444444444,95.69227430555556,0)" xlink:href="#af"/><use transform="matrix(0.010850694444444444,0,0,0.010850694444444444,115.15842013888887,0)" xlink:href="#G"/></g><g id="u"><use transform="matrix(0.010850694444444444,0,0,0.010850694444444444,0,0)" xlink:href="#P"/><use transform="matrix(0.010850694444444444,0,0,0.010850694444444444,14.2578125,0)" xlink:href="#H"/><use transform="matrix(0.010850694444444444,0,0,0.010850694444444444,21.31076388888889,0)" xlink:href="#I"/><use transform="matrix(0.010850694444444444,0,0,0.010850694444444444,34.635416666666664,0)" xlink:href="#J"/><use transform="matrix(0.010850694444444444,0,0,0.010850694444444444,42.632378472222214,0)" xlink:href="#G"/><use transform="matrix(0.010850694444444444,0,0,0.010850694444444444,55.58810763888888,0)" xlink:href="#Q"/><use transform="matrix(0.010850694444444444,0,0,0.010850694444444444,64.84374999999999,0)" xlink:href="#aj"/><use transform="matrix(0.010850694444444444,0,0,0.010850694444444444,81.07638888888887,0)" xlink:href="#S"/><use transform="matrix(0.010850694444444444,0,0,0.010850694444444444,86.45833333333331,0)" xlink:href="#H"/><use transform="matrix(0.010850694444444444,0,0,0.010850694444444444,94.16232638888887,0)" xlink:href="#K"/></g><path fill="#3a414a" d="M180 0v-1490h190v1322h690V0H180" id="am"/><g id="v"><use transform="matrix(0.010850694444444444,0,0,0.010850694444444444,0,0)" xlink:href="#P"/><use transform="matrix(0.010850694444444444,0,0,0.010850694444444444,14.2578125,0)" xlink:href="#H"/><use transform="matrix(0.010850694444444444,0,0,0.010850694444444444,21.31076388888889,0)" xlink:href="#I"/><use transform="matrix(0.010850694444444444,0,0,0.010850694444444444,34.635416666666664,0)" xlink:href="#J"/><use transform="matrix(0.010850694444444444,0,0,0.010850694444444444,42.632378472222214,0)" xlink:href="#G"/><use transform="matrix(0.010850694444444444,0,0,0.010850694444444444,55.58810763888888,0)" xlink:href="#Q"/><use transform="matrix(0.010850694444444444,0,0,0.010850694444444444,66.47135416666666,0)" xlink:href="#am"/><use transform="matrix(0.010850694444444444,0,0,0.010850694444444444,79.03645833333333,0)" xlink:href="#I"/><use transform="matrix(0.010850694444444444,0,0,0.010850694444444444,92.36111111111111,0)" xlink:href="#Z"/><use transform="matrix(0.010850694444444444,0,0,0.010850694444444444,105.27343749999997,0)" xlink:href="#ad"/><use transform="matrix(0.010850694444444444,0,0,0.010850694444444444,117.7517361111111,0)" xlink:href="#H"/><use transform="matrix(0.010850694444444444,0,0,0.010850694444444444,125.02170138888887,0)" xlink:href="#S"/><use transform="matrix(0.010850694444444444,0,0,0.010850694444444444,130.40364583333331,0)" xlink:href="#I"/><use transform="matrix(0.010850694444444444,0,0,0.010850694444444444,143.7282986111111,0)" xlink:href="#E"/></g><path fill="#3a414a" d="M158 418v-1536h174v179h20c37-59 106-193 324-193 279 0 474 222 474 576 0 356-194 580-473 580-213 0-288-135-325-197h-14v591H158zm492-555c209 0 317-186 317-421 0-232-105-413-317-413-206 0-314 166-314 413 0 249 111 421 314 421" id="an"/><g id="w"><use transform="matrix(0.010850694444444444,0,0,0.010850694444444444,0,0)" xlink:href="#P"/><use transform="matrix(0.010850694444444444,0,0,0.010850694444444444,14.2578125,0)" xlink:href="#H"/><use transform="matrix(0.010850694444444444,0,0,0.010850694444444444,21.31076388888889,0)" xlink:href="#I"/><use transform="matrix(0.010850694444444444,0,0,0.010850694444444444,34.635416666666664,0)" xlink:href="#J"/><use transform="matrix(0.010850694444444444,0,0,0.010850694444444444,42.632378472222214,0)" xlink:href="#G"/><use transform="matrix(0.010850694444444444,0,0,0.010850694444444444,55.58810763888888,0)" xlink:href="#Q"/><use transform="matrix(0.010850694444444444,0,0,0.010850694444444444,64.84374999999999,0)" xlink:href="#ab"/><use transform="matrix(0.010850694444444444,0,0,0.010850694444444444,81.83593749999999,0)" xlink:href="#an"/><use transform="matrix(0.010850694444444444,0,0,0.010850694444444444,95.44270833333331,0)" xlink:href="#G"/><use transform="matrix(0.010850694444444444,0,0,0.010850694444444444,108.39843749999997,0)" xlink:href="#E"/><use transform="matrix(0.010850694444444444,0,0,0.010850694444444444,121.52777777777776,0)" xlink:href="#Q"/><use transform="matrix(0.010850694444444444,0,0,0.010850694444444444,132.41102430555554,0)" xlink:href="#R"/><use transform="matrix(0.010850694444444444,0,0,0.010850694444444444,148.44835069444443,0)" xlink:href="#ad"/><use transform="matrix(0.010850694444444444,0,0,0.010850694444444444,160.92664930555554,0)" xlink:href="#H"/><use transform="matrix(0.010850694444444444,0,0,0.010850694444444444,167.97960069444443,0)" xlink:href="#G"/></g><g id="x"><use transform="matrix(0.010850694444444444,0,0,0.010850694444444444,0,0)" xlink:href="#R"/><use transform="matrix(0.010850694444444444,0,0,0.010850694444444444,16.03732638888889,0)" xlink:href="#ad"/><use transform="matrix(0.010850694444444444,0,0,0.010850694444444444,28.515625,0)" xlink:href="#H"/><use transform="matrix(0.010850694444444444,0,0,0.010850694444444444,35.568576388888886,0)" xlink:href="#G"/></g><g id="y"><use transform="matrix(0.010850694444444444,0,0,0.010850694444444444,0,0)" xlink:href="#P"/><use transform="matrix(0.010850694444444444,0,0,0.010850694444444444,14.2578125,0)" xlink:href="#ad"/><use transform="matrix(0.010850694444444444,0,0,0.010850694444444444,26.73611111111111,0)" xlink:href="#al"/><use transform="matrix(0.010850694444444444,0,0,0.010850694444444444,32.11805555555556,0)" xlink:href="#G"/><use transform="matrix(0.010850694444444444,0,0,0.010850694444444444,45.07378472222222,0)" xlink:href="#ae"/></g><g id="z"><use transform="matrix(0.010850694444444444,0,0,0.010850694444444444,0,0)" xlink:href="#P"/><use transform="matrix(0.010850694444444444,0,0,0.010850694444444444,14.2578125,0)" xlink:href="#ad"/><use transform="matrix(0.010850694444444444,0,0,0.010850694444444444,26.73611111111111,0)" xlink:href="#al"/><use transform="matrix(0.010850694444444444,0,0,0.010850694444444444,32.11805555555556,0)" xlink:href="#G"/><use transform="matrix(0.010850694444444444,0,0,0.010850694444444444,45.07378472222222,0)" xlink:href="#Q"/><use transform="matrix(0.010850694444444444,0,0,0.010850694444444444,55.95703125,0)" xlink:href="#D"/><use transform="matrix(0.010850694444444444,0,0,0.010850694444444444,61.92491319444444,0)" xlink:href="#R"/></g><g id="A"><use transform="matrix(0.06172839506172839,0,0,0.06172839506172839,0,0)" xlink:href="#W"/><use transform="matrix(0.06172839506172839,0,0,0.06172839506172839,13.518518518518517,0)" xlink:href="#U"/></g><g id="B"><use transform="matrix(0.010850694444444444,0,0,0.010850694444444444,0,0)" xlink:href="#O"/><use transform="matrix(0.010850694444444444,0,0,0.010850694444444444,13.118489583333332,0)" xlink:href="#M"/></g><path fill="#3a414a" d="M763 24c-353 0-583-224-583-531v-983h190v968c0 214 149 370 393 370 243 0 391-156 391-370v-968h190v983c0 307-230 531-581 531" id="ao"/><g id="C"><use transform="matrix(0.010850694444444444,0,0,0.010850694444444444,0,0)" xlink:href="#ao"/><use transform="matrix(0.010850694444444444,0,0,0.010850694444444444,16.536458333333332,0)" xlink:href="#E"/><use transform="matrix(0.010850694444444444,0,0,0.010850694444444444,29.665798611111104,0)" xlink:href="#S"/><use transform="matrix(0.010850694444444444,0,0,0.010850694444444444,35.04774305555555,0)" xlink:href="#H"/><use transform="matrix(0.010850694444444444,0,0,0.010850694444444444,42.10069444444444,0)" xlink:href="#ae"/></g></defs></g></svg>